<svg width="119" height="24" viewBox="0 0 119 24" fill="none" xmlns="http://www.w3.org/2000/svg">
  <g clip-path="url(#clip0_82_1069)">
    <mask id="mask0_82_1069" style="mask-type:luminance" maskUnits="userSpaceOnUse" x="0" y="0" width="25" height="25">
      <path fill-rule="evenodd" clip-rule="evenodd" d="M6.04755 0.480676L7.07832 0.469727L17.7999 0.474107C17.9627 0.475567 18.0642 0.477756 18.1649 0.480676C18.6963 0.494546 19.2329 0.525207 19.7585 0.619377C20.285 0.70821 20.7955 0.874508 21.2733 1.11286C21.7492 1.3523 22.1858 1.66474 22.5632 2.03924C22.9407 2.41195 23.2569 2.84215 23.4998 3.31382C23.748 3.79344 23.9035 4.28473 23.9991 4.81179C24.094 5.33155 24.1254 5.86154 24.1392 6.38714C24.1465 6.62804 24.1495 6.86894 24.1502 7.11058L24.1517 7.54055V17.0576C24.1517 17.3438 24.1517 17.6307 24.1502 17.9176C24.1487 18.1585 24.1465 18.3994 24.1392 18.6403C24.1246 19.1659 24.094 19.6966 23.9991 20.2156C23.909 20.7372 23.7407 21.2422 23.4998 21.7136C23.2567 22.1854 22.9406 22.6158 22.5632 22.9889C22.1843 23.3633 21.749 23.6758 21.2733 23.9153C20.7955 24.1537 20.285 24.32 19.7585 24.4088C19.2329 24.5022 18.6963 24.5329 18.1649 24.5475L16.5633 24.5599L6.41183 24.554C6.29038 24.5527 6.16895 24.5503 6.04755 24.5467C5.51611 24.5336 4.97956 24.5022 4.45395 24.4088C3.92768 24.3199 3.41747 24.1536 2.93993 23.9153C1.98402 23.4342 1.20433 22.6637 0.711952 21.7136C0.4714 21.2421 0.303079 20.7371 0.212629 20.2156C0.117729 19.6966 0.0870685 19.1659 0.0731984 18.641C0.0658984 18.4001 0.0637088 18.1585 0.0622488 17.9176L0.0600586 17.4861V7.97052C0.0600586 7.68436 0.0600588 7.39747 0.0622488 7.1113C0.0637088 6.8704 0.0666284 6.6295 0.0731984 6.38787C0.0877985 5.86227 0.118459 5.33228 0.212629 4.81252C0.303026 4.29099 0.471349 3.78602 0.711952 3.31455C1.20361 2.36415 1.98318 1.59352 2.9392 1.11286C3.41699 0.874498 3.92744 0.7082 4.45395 0.619377C4.97956 0.525937 5.51611 0.495276 6.04755 0.480676Z" fill="white" />
    </mask>
    <g mask="url(#mask0_82_1069)">
      <path d="M-16 -12.6758H66.3669V69.6912H-16V-12.6758Z" fill="#19AA1E" />
      <path fill-rule="evenodd" clip-rule="evenodd" d="M-16 -12.6758H66.3669V14.3481L-16 1.48006V-12.6758Z" fill="#FFB919" />
      <path fill-rule="evenodd" clip-rule="evenodd" d="M-16 -0.147461L12.7509 4.34488C16.3298 2.07874 20.5876 0.835864 25.1822 0.835864C31.5464 0.835864 37.2666 3.21929 41.4295 7.40215C41.9536 7.93125 42.4478 8.48281 42.9145 9.05683L66.3669 12.7206V15.9775L45.2954 12.6831C46.8725 15.698 47.6987 19.049 47.7038 22.4515C47.7038 26.864 46.718 31.2639 44.6765 35.6814L44.6166 35.8162L43.748 37.673H41.7015C37.4688 37.673 34.6635 38.9383 32.8267 41.182C31.3866 42.9415 30.5531 45.3175 30.2735 47.908L30.2635 47.9879L30.2236 48.4022L30.2062 48.5819L30.1712 48.9338C30.0639 50.0918 29.994 51.0726 29.9566 51.8713L66.3669 46.181V49.4379L-16 62.3085V59.0515L20.4503 53.3562L20.4353 52.625L20.4303 52.4203L20.4253 52.313L20.4203 52.1508C20.3879 51.2648 20.3055 50.1292 20.1758 48.7516L20.1508 48.4895L20.1059 48.0378C19.8463 45.4323 19.0252 43.0289 17.5852 41.2419C15.7708 38.9833 12.993 37.698 8.79269 37.673H6.61641L5.75038 35.8162C3.66894 31.3538 2.66065 26.9089 2.66065 22.4515C2.66065 16.846 4.93428 11.4253 8.93745 7.40215L9.28685 7.06024L-16 3.10699V-0.147461Z" fill="white" />
      <path fill-rule="evenodd" clip-rule="evenodd" d="M25.1825 4.05371C36.6829 4.05371 44.487 12.9036 44.487 22.4523C44.487 26.2858 43.651 30.274 41.6993 34.4568C30.3861 34.4568 27.5934 42.558 27.0643 47.6593L27.0293 47.9962C26.8521 49.8181 26.7473 51.2781 26.7199 52.3763L23.6551 52.8554V52.7556C23.6124 51.1337 23.5025 49.5142 23.3257 47.9014L23.3182 47.8115C22.829 42.7227 20.0962 34.4568 8.66817 34.4568C6.714 30.274 5.87793 26.2858 5.87793 22.4523C5.87793 12.9036 13.6846 4.05371 25.1825 4.05371Z" fill="#0073FA" />
    </g>
    <path fill-rule="evenodd" clip-rule="evenodd" d="M40.15 0.557617C34.2837 0.557617 29.8852 4.00659 29.9221 9.99637H35.3741C35.2991 7.60046 36.8776 5.27642 40.15 5.27642C42.6309 5.27642 44.2105 6.8737 44.2105 8.9068C44.2105 11.0129 42.4797 12.1744 39.6989 13.4818C36.0515 15.1875 33.8707 15.9861 29.9221 17.256V24.1539H50.2256V19.434H37.2919C39.1762 18.6753 41.0108 17.8424 42.6689 17.0746C47.0675 15.0426 49.6614 12.7551 49.6614 8.65351C49.6614 3.71566 45.8271 0.557617 40.15 0.557617ZM58.4978 5.63923H69.0257V0.920427H53.2338V24.1539H58.4978V5.63923ZM77.2978 0.920427H72.0338V24.1539H77.2597L87.0734 9.30612V24.1539H92.3374V0.920427H87.0734L77.2978 15.7682V0.920427ZM118.77 15.4408H113.318C112.491 18.0192 109.972 19.7979 107.002 19.7979C102.677 19.7979 99.8571 16.2041 99.8571 12.5372C99.8571 8.87029 102.602 5.27642 107.152 5.27642C110.16 5.27642 112.491 7.05624 113.318 9.63356H118.77C117.981 4.44242 113.732 0.557617 107.002 0.557617C99.5571 0.557617 94.5932 5.60386 94.5932 12.5372C94.5932 19.4705 99.5571 24.5167 107.002 24.5167C113.732 24.5167 117.981 20.7061 118.77 15.4408Z" fill="white" />
  </g>
  <defs>
    <clipPath id="clip0_82_1069">
      <rect width="119" height="24" fill="white" />
    </clipPath>
  </defs>
</svg>