<svg width="29" height="29" viewBox="0 0 29 29" fill="none" xmlns="http://www.w3.org/2000/svg">
  <path fill-rule="evenodd" clip-rule="evenodd" d="M14.8116 28.9172C11.9656 28.9172 10.643 28.5 8.34405 26.8309C6.8899 28.7086 2.28509 30.176 2.08428 27.6654C2.08428 25.7807 1.66881 24.1881 1.19794 22.4495C0.637056 20.3074 0 17.922 0 14.4656C0 6.21046 6.74449 0 14.7354 0C22.7332 0 28.9999 6.51646 28.9999 14.5421C29.0268 22.4436 22.6788 28.8751 14.8116 28.9172ZM14.9293 7.13543C11.0377 6.93374 8.00475 9.63908 7.33307 13.8814C6.77911 17.3935 7.76239 21.6705 8.60026 21.8931C9.00188 21.9905 10.0129 21.1698 10.643 20.5369C11.6849 21.2599 12.8983 21.6941 14.1607 21.7957C18.193 21.9905 21.6384 18.9074 21.9092 14.862C22.0668 10.808 18.9622 7.37437 14.9293 7.14238L14.9293 7.13543Z" fill="white" />
</svg>