<svg width="30" height="30" viewBox="0 0 30 30" fill="none" xmlns="http://www.w3.org/2000/svg">
  <path d="M14.75 28.75C22.482 28.75 28.75 22.482 28.75 14.75C28.75 7.01801 22.482 0.75 14.75 0.75C7.01801 0.75 0.75 7.01801 0.75 14.75C0.75 22.482 7.01801 28.75 14.75 28.75Z" stroke="#C86834" stroke-width="1.5" />
  <path d="M10.5498 17.5502H14.7498M11.9498 14.7502V9.43024C11.9498 9.16984 11.9498 9.03964 11.9666 8.93184C12.0127 8.63949 12.1503 8.36928 12.3596 8.16C12.5688 7.95072 12.8391 7.81315 13.1314 7.76704C13.2378 7.75024 13.3694 7.75024 13.6298 7.75024H16.8498C17.7781 7.75024 18.6683 8.11899 19.3247 8.77537C19.9811 9.43175 20.3498 10.322 20.3498 11.2502C20.3498 12.1785 19.9811 13.0687 19.3247 13.7251C18.6683 14.3815 17.7781 14.7502 16.8498 14.7502H11.9498ZM11.9498 14.7502V21.7502M11.9498 14.7502H10.5498" stroke="#C86834" stroke-width="1.5" stroke-linecap="round" />
</svg>