<svg  viewBox="0 0 22 22" fill="none" xmlns="http://www.w3.org/2000/svg">
  <g clip-path="url(#clip0_171_4777)">
    <path d="M0 10.56C0 5.58195 0 3.09295 1.54648 1.54648C3.09295 0 5.58195 0 10.56 0H11.44C16.4181 0 18.907 0 20.4535 1.54648C22 3.09295 22 5.58195 22 10.56V11.44C22 16.4181 22 18.907 20.4535 20.4535C18.907 22 16.4181 22 11.44 22H10.56C5.58195 22 3.09295 22 1.54648 20.4535C0 18.907 0 16.4181 0 11.44V10.56Z" fill="#0A0A0A" />
    <path d="M11.7057 15.8489C6.69152 15.8489 3.83157 12.4114 3.7124 6.69141H6.22407C6.30657 10.8897 8.15819 12.6681 9.62486 13.0347V6.69141H11.9899V10.3122C13.4383 10.1564 14.9598 8.50641 15.4731 6.69141H17.8381C17.444 8.92807 15.794 10.5781 14.6206 11.2564C15.794 11.8064 17.6732 13.2456 18.3882 15.8489H15.7848C15.2256 14.1072 13.8324 12.7597 11.9899 12.5764V15.8489H11.7057Z" fill="white" />
  </g>
  <defs>
    <clipPath id="clip0_171_4777">
      <rect width="22" height="22" fill="white" />
    </clipPath>
  </defs>
</svg>