<svg width="113" height="18" viewBox="0 0 113 18" fill="none" xmlns="http://www.w3.org/2000/svg">
  <path d="M6.95814 14.2311H9.42342V0H5.83171C2.22068 0 0.328275 1.86045 0.328275 4.60589C0.328275 6.79579 1.36459 8.08777 3.22482 9.4185L0 14.2311H2.67126L6.26297 8.84357L5.02068 8.00379C3.50804 6.98313 2.77425 6.1821 2.77425 4.46378C2.77425 2.9457 3.83631 1.92504 5.85746 1.92504H6.95814V14.2311ZM54.558 14.4314C55.6844 14.4314 56.4762 14.2311 57.0683 13.7983V11.8151C56.4569 12.2415 55.7231 12.5063 54.7061 12.5063C52.9681 12.5063 52.2537 11.1562 52.2537 9.03091C52.2537 6.79579 53.1355 5.65239 54.7254 5.65239C55.6651 5.65239 56.5792 5.97539 57.0683 6.28546V4.2183C56.5598 3.92761 55.6651 3.72735 54.4615 3.72735C51.3589 3.72735 49.7433 5.95601 49.7433 9.08905C49.7433 12.5322 51.3139 14.4314 54.558 14.4314ZM39.3801 13.5334V11.5438C38.627 12.0606 37.359 12.5063 36.1746 12.5063C34.3981 12.5063 33.7286 11.673 33.6257 9.94821H39.4831V8.6627C39.4831 5.07746 37.9125 3.72735 35.4794 3.72735C32.525 3.72735 31.1153 5.99477 31.1153 9.10843C31.1153 12.6937 32.8726 14.4314 35.9751 14.4314C37.5199 14.4314 38.6656 14.0244 39.3801 13.5334ZM47.1364 14.2311H49.8849L45.9907 8.7596L49.4215 3.92761H46.9691L43.5447 8.7596V3.92761H41.1116V14.2311H43.5447V9.25055L47.1364 14.2311ZM30.5231 12.3061H29.4418V3.92761H22.3613V4.81261C22.3613 7.3255 22.2004 10.5813 21.3443 12.3061H20.5848V16.5825H22.8312V14.2311H28.2767V16.5825H30.5231V12.3061ZM17.1411 3.92761V8.00379H13.897V3.92761H11.4639V14.2311H13.897V9.92883H17.1411V14.2311H19.5678V3.92761H17.1411ZM35.4408 5.65239C36.6445 5.65239 37.0114 6.65368 37.0114 7.94565V8.14591H33.6257C33.69 6.51156 34.2758 5.65239 35.4408 5.65239ZM27.0151 12.3061H23.5843C24.2602 10.7492 24.4468 7.94565 24.4468 6.16272V5.85265H27.0151V12.3061ZM69.7423 14.2311H72.6196L67.5796 6.75703L72.1497 0H69.6393L65.2495 6.55032V0H62.7842V14.2311H65.2495V7.5516L69.7423 14.2311ZM80.9037 7.20277C80.9037 4.70925 79.6356 3.76611 77.0674 3.76611C75.4582 3.76611 74.1901 4.27644 73.4563 4.70925V6.73765C74.1065 6.24024 75.5354 5.71053 76.7842 5.71053C77.9428 5.71053 78.477 6.11751 78.477 7.2286V7.79707H78.0844C74.3704 7.79707 72.7226 9.03091 72.7226 11.1175C72.7226 13.204 73.9842 14.3732 75.8637 14.3732C77.2927 14.3732 77.9042 13.9017 78.374 13.4107H78.477C78.4963 13.6756 78.58 14.0244 78.6573 14.2311H81.026C80.9423 13.3913 80.9037 12.5515 80.9037 11.7118V7.20277ZM78.477 11.7699C78.1681 12.2221 77.5952 12.5903 76.7391 12.5903C75.7221 12.5903 75.2071 12.0154 75.2071 11.1368C75.2071 9.96759 76.0439 9.54124 78.1294 9.54124H78.477V11.7699ZM85.1069 3.92761H82.8605V17.1962H85.2871V13.0231C85.9051 13.9404 86.7998 14.4314 87.8425 14.4314C90.2048 14.4314 91.8398 12.5322 91.8398 9.06967C91.8398 5.62655 90.2499 3.72735 87.9648 3.72735C86.8191 3.72735 85.8793 4.25706 85.2292 5.25834L85.1069 3.92761ZM87.231 12.5063C85.9437 12.5063 85.2871 11.4663 85.2871 9.08905C85.2871 6.69243 85.9823 5.65239 87.3533 5.65239C88.6793 5.65239 89.3294 6.69243 89.3294 9.06967C89.3294 11.4663 88.6342 12.5063 87.231 12.5063ZM100.388 5.85265V3.92761H92.2453V5.85265H95.1032V14.2311H97.5299V5.85265H100.388ZM101.817 3.92761V14.2311H105.511C107.899 14.2311 109.592 13.0037 109.592 10.5813C109.592 8.28802 108.08 7.08003 105.55 7.08003H104.243V3.92761H101.817ZM110.487 3.92761V14.2311H112.92V3.92761H110.487ZM105.37 12.3061H104.243V9.00507H105.428C106.471 9.00507 107.082 9.47664 107.082 10.6653C107.082 11.8539 106.406 12.3061 105.37 12.3061Z" fill="white" />
</svg>