<svg  viewBox="0 0 22 22" fill="none" xmlns="http://www.w3.org/2000/svg">
  <path d="M10.9885 18.5865C10.9885 18.5865 17.8803 18.5865 19.5898 18.1313C20.5523 17.8734 21.2762 17.1299 21.5303 16.212C22 14.5279 22 10.9851 22 10.9851C22 10.9851 22 7.4651 21.5303 5.79613C21.2762 4.85544 20.5523 4.12716 19.5898 3.87682C17.8803 3.41406 10.9885 3.41406 10.9885 3.41406C10.9885 3.41406 4.112 3.41406 2.41022 3.87682C1.46308 4.12716 0.723837 4.85544 0.454323 5.79613C1.29346e-07 7.4651 0 10.9851 0 10.9851C0 10.9851 1.29346e-07 14.5279 0.454323 16.212C0.723837 17.1299 1.46308 17.8734 2.41022 18.1313C4.112 18.5865 10.9885 18.5865 10.9885 18.5865Z" fill="#0A0A0A" />
  <path d="M14.4143 11.0005L8.72461 7.77637V14.2246L14.4143 11.0005Z" fill="white" />
</svg>