<svg width="179" height="38" viewBox="0 0 179 38" fill="none" xmlns="http://www.w3.org/2000/svg">
<g clip-path="url(#clip0_55_884)">
<path d="M25.6131 31.083H21.68L21.6186 32.7827C21.6032 33.1929 21.5782 33.5714 21.5418 33.9171C21.5062 34.2628 21.4525 34.5643 21.3805 34.8204C21.3094 35.0766 21.2106 35.2759 21.0848 35.4165C20.96 35.5581 20.7997 35.6255 20.6058 35.6207H20.4301L20.4224 37.6132H21.3498V36.4672H25.4662V37.6132H26.3859V35.6207H25.6112V31.083H25.6131ZM24.632 35.6207H21.9046C21.9594 35.5668 22.0102 35.5061 22.0554 35.4281C22.1571 35.2538 22.2368 35.0361 22.2934 34.7742C22.3491 34.5132 22.3942 34.2214 22.4269 33.9008C22.4605 33.5801 22.4816 33.2411 22.4922 32.8819L22.5306 31.9285H24.631V35.6197L24.632 35.6207ZM37.0515 31.083H38.0403V36.4672H37.0515V34.4323C36.825 34.52 36.6013 34.5932 36.3853 34.6403C36.1194 34.6991 35.8611 34.7289 35.6106 34.7289C34.9309 34.7289 34.4038 34.5623 34.0314 34.2291C33.6579 33.8959 33.4717 33.4221 33.4717 32.8058V31.083H34.4528V32.6835C34.4528 33.0677 34.5642 33.3595 34.7859 33.5598C35.0086 33.7602 35.3235 33.8593 35.7325 33.8593C35.9831 33.8593 36.2307 33.8305 36.4755 33.7707C36.6723 33.7236 36.8634 33.6533 37.0506 33.5724L37.0515 31.083ZM31.3866 31.083H32.3139V36.4672H31.3251V32.6527L28.4499 36.4672H27.5139V31.083H28.5037V34.9052L31.3866 31.083ZM6.91137 31.7908C6.66369 31.5404 6.36801 31.3459 6.02625 31.2101C5.68353 31.0743 5.31297 31.0059 4.91457 31.0059C4.51617 31.0059 4.15425 31.0743 3.81441 31.2101C3.47457 31.3459 3.17889 31.5394 2.92929 31.7908C2.67873 32.0421 2.48481 32.3349 2.34657 32.6681C2.26593 32.8626 2.21601 33.0726 2.18337 33.2912H1.31937V31.083H0.330566V36.4672H1.31937V34.1752H2.17569C2.20641 34.4188 2.25633 34.6548 2.34657 34.8753C2.48481 35.2143 2.67873 35.509 2.92929 35.7603C3.17889 36.0117 3.47457 36.2052 3.81441 36.341C4.15425 36.4768 4.52097 36.5452 4.91457 36.5452C5.30817 36.5452 5.68353 36.4768 6.02625 36.341C6.36801 36.2052 6.66369 36.0117 6.91137 35.7603C7.15905 35.509 7.35201 35.2153 7.49025 34.8801C7.62849 34.544 7.69665 34.1762 7.69665 33.7765C7.69665 33.3769 7.62753 33.008 7.49025 32.6719C7.35201 32.3368 7.15905 32.0421 6.91137 31.7908ZM6.56289 34.544C6.47073 34.7742 6.34593 34.9735 6.18753 35.1401C6.02913 35.3067 5.84097 35.4348 5.62401 35.5244C5.40705 35.6139 5.17281 35.6582 4.92225 35.6582C4.67169 35.6582 4.43937 35.613 4.22433 35.5244C4.00929 35.4348 3.82209 35.3067 3.66081 35.1401C3.49953 34.9735 3.37473 34.7752 3.28545 34.544C3.19617 34.3129 3.15105 34.0568 3.15105 33.7746C3.15105 33.4924 3.19617 33.2363 3.28545 33.0052C3.37473 32.775 3.50049 32.5766 3.66081 32.41C3.82209 32.2434 4.01121 32.1144 4.22817 32.0248C4.44513 31.9353 4.67649 31.891 4.92225 31.891C5.16801 31.891 5.41281 31.9362 5.62785 32.0248C5.84289 32.1144 6.02913 32.2424 6.18753 32.41C6.34593 32.5766 6.47169 32.775 6.56289 33.0052C6.65409 33.2363 6.70112 33.4924 6.70112 33.7746C6.70112 34.0568 6.65505 34.3129 6.56289 34.544ZM40.7322 35.6207H43.76V36.4672H39.7347V31.083H43.6525V31.9295H40.7312V33.321H43.3232V34.1444H40.7312L40.7322 35.6207ZM117.444 31.083C116.989 31.083 116.592 31.1619 116.255 31.318C115.917 31.474 115.657 31.6993 115.473 31.9911C115.289 32.2829 115.196 32.6392 115.196 33.06C115.196 33.4549 115.284 33.7958 115.458 34.0828C115.631 34.3697 115.879 34.5893 116.201 34.7405C116.251 34.7646 116.313 34.7732 116.366 34.7935L115.211 36.4672H116.261L117.265 34.9581C117.3 34.9591 117.329 34.9668 117.364 34.9668H118.691V36.4662H119.672V31.082H117.441L117.444 31.083ZM118.694 34.1511H117.436C117.033 34.1511 116.728 34.0548 116.52 33.8632C116.314 33.6706 116.21 33.3981 116.21 33.0446C116.21 32.6912 116.319 32.3975 116.537 32.2097C116.754 32.0229 117.067 31.9295 117.476 31.9295H118.695V34.1521L118.694 34.1511ZM18.5005 31.083H19.4278V36.4672H18.439V32.6527L15.5638 36.4672H14.6288V31.083H15.6176V34.9052L18.5005 31.083ZM12.4323 31.3103C12.0925 31.1591 11.6845 31.083 11.2093 31.083H9.00129V36.4672H9.99777V34.9138H11.2093C11.6845 34.9138 12.0925 34.8358 12.4323 34.6789C12.7722 34.5229 13.0342 34.3023 13.2176 34.0182C13.4019 33.7332 13.4941 33.3942 13.4941 32.9994C13.4941 32.6045 13.4019 32.2559 13.2176 31.969C13.0333 31.682 12.7712 31.4614 12.4323 31.3103ZM12.1558 33.7862C11.9331 33.9739 11.6029 34.0674 11.1632 34.0674H9.99777V31.9295H11.1632C11.6019 31.9295 11.9331 32.0229 12.1558 32.2097C12.3786 32.3965 12.489 32.6594 12.489 32.9974C12.489 33.3355 12.3776 33.6003 12.1558 33.7862ZM53.552 33.687L55.4605 36.4672H54.3334L52.761 34.1983H51.7568V36.4672H50.7834V31.083H51.7568V33.3441H52.785L54.3325 31.083H55.3904L53.552 33.687ZM62.8055 31.318C62.4675 31.474 62.2074 31.6993 62.023 31.9911C61.8387 32.2829 61.7466 32.6392 61.7466 33.06C61.7466 33.4549 61.8339 33.7958 62.0077 34.0828C62.1814 34.3697 62.4291 34.5893 62.7507 34.7405C62.8007 34.7646 62.863 34.7732 62.9158 34.7935L61.761 36.4672H62.8112L63.8154 34.9581C63.8499 34.9591 63.8787 34.9668 63.9142 34.9668H65.241V36.4662H66.2221V31.082H63.991C63.536 31.082 63.1395 31.161 62.8026 31.317L62.8055 31.318ZM65.2429 31.9295V34.1521H63.9853C63.5821 34.1521 63.2768 34.0558 63.0695 33.8642C62.863 33.6716 62.7594 33.399 62.7594 33.0456C62.7594 32.6922 62.8679 32.3985 63.0858 32.2107C63.3027 32.0238 63.6157 31.9304 64.0247 31.9304H65.2439L65.2429 31.9295ZM73.0016 33.687L74.911 36.4672H73.784L72.2115 34.1983H71.2074V36.4672H70.2339V31.083H71.2074V33.3441H72.2355L73.784 31.083H74.8419L73.0016 33.687ZM98.2016 31.083L95.7863 36.4672H96.8058L97.3386 35.221H100.023L100.555 36.4672H101.605L99.1827 31.083H98.2016ZM97.6755 34.4362L98.6845 32.0797L99.6896 34.4362H97.6755ZM80.3274 31.7869C80.0691 31.5385 79.7638 31.3459 79.4115 31.2101C79.0592 31.0743 78.6752 31.0059 78.2615 31.0059C77.8477 31.0059 77.457 31.0753 77.1037 31.213C76.7504 31.3517 76.4442 31.5452 76.184 31.7937C75.9229 32.0421 75.7213 32.3349 75.5783 32.67C75.4352 33.0061 75.3632 33.374 75.3632 33.7746C75.3632 34.1752 75.4343 34.5344 75.5783 34.8705C75.7213 35.2066 75.9229 35.5003 76.184 35.7507C76.4442 36.002 76.7523 36.1966 77.1075 36.3352C77.4627 36.4739 77.8477 36.5423 78.2615 36.5423C78.6752 36.5423 79.0592 36.4739 79.4115 36.3381C79.7638 36.2023 80.0691 36.0088 80.3274 35.7574C80.5856 35.5061 80.7862 35.2124 80.9293 34.8772C81.0723 34.5412 81.1443 34.1733 81.1443 33.7736C81.1443 33.374 81.0733 33.0042 80.9293 32.6662C80.7862 32.3282 80.5856 32.0354 80.3274 31.7869ZM79.9981 34.5363C79.9031 34.7675 79.7715 34.9668 79.6035 35.1363C79.4346 35.3058 79.2368 35.4358 79.0093 35.5282C78.7818 35.6207 78.5322 35.6669 78.2615 35.6669C77.9907 35.6669 77.7392 35.6207 77.5059 35.5282C77.2727 35.4358 77.073 35.3039 76.904 35.1324C76.735 34.961 76.6026 34.7598 76.5056 34.5286C76.4087 34.2985 76.3597 34.0471 76.3597 33.7756C76.3597 33.504 76.4087 33.2459 76.5056 33.0177C76.6026 32.7894 76.735 32.5901 76.904 32.4177C77.073 32.2453 77.2736 32.1144 77.5059 32.0219C77.7383 31.9295 77.9898 31.8832 78.2615 31.8832C78.5331 31.8832 78.7808 31.9295 79.0093 32.0219C79.2368 32.1144 79.4355 32.2453 79.6074 32.4139C79.7783 32.5833 79.9098 32.7827 80.0019 33.0138C80.0941 33.244 80.1402 33.4982 80.1402 33.7756C80.1402 34.0529 80.0931 34.3062 79.9981 34.5363ZM88.304 31.083L88.3194 36.4672H87.3613V32.904L85.6054 35.8605H85.1533L83.3975 32.9618V36.4681H82.4394V31.0839H83.2602L85.3904 34.6519L87.4928 31.0839H88.305L88.304 31.083ZM57.9757 31.083L55.5613 36.4672H56.5808L57.1146 35.221H59.7987L60.3296 36.4672H61.3799L58.9568 31.083H57.9757ZM57.4496 34.4362L58.4586 32.0797L59.4637 34.4362H57.4496ZM90.0138 31.083H94.7744V36.4672H93.7856V31.9295H91.0026V36.4672H90.0138V31.083ZM112.952 31.083H113.879V36.4672H112.891V32.6527L110.015 36.4672H109.079V31.083H110.068V34.9052L112.952 31.083ZM106.389 31.083H107.378V36.4672H106.389V34.1598H103.614V36.4672H102.618V31.083H103.614V33.3056H106.389V31.083ZM45.8086 33.0138C45.7117 33.244 45.6637 33.4982 45.6637 33.7756C45.6637 34.0529 45.7117 34.3062 45.8086 34.5363C45.9066 34.7675 46.04 34.9668 46.2118 35.1363C46.3827 35.3058 46.5843 35.4358 46.8166 35.5282C47.0499 35.6207 47.3063 35.6669 47.5875 35.6669C47.8688 35.6669 48.1213 35.6139 48.3623 35.509C48.6023 35.404 48.8221 35.2432 49.0208 35.0284L49.665 35.6361C49.4154 35.9337 49.1082 36.159 48.7453 36.3131C48.3824 36.4672 47.9783 36.5432 47.5338 36.5432C47.1191 36.5432 46.7389 36.4749 46.3914 36.3391C46.0438 36.2033 45.7405 36.0097 45.4832 35.7584C45.225 35.507 45.0243 35.2153 44.8813 34.8811C44.7382 34.5479 44.6672 34.1791 44.6672 33.7736C44.6672 33.3682 44.7382 32.9994 44.8813 32.6662C45.0243 32.333 45.2259 32.0412 45.487 31.7889C45.7482 31.5385 46.0515 31.344 46.4 31.2082C46.7475 31.0724 47.1287 31.004 47.5424 31.004C47.9811 31.004 48.3834 31.0801 48.7463 31.2313C49.1091 31.3825 49.4154 31.6069 49.6659 31.9035L49.0218 32.5111C48.8221 32.3012 48.6032 32.1433 48.3632 32.0383C48.1232 31.9333 47.865 31.8804 47.5885 31.8804C47.312 31.8804 47.0509 31.9266 46.8176 32.019C46.5853 32.1115 46.3837 32.2424 46.2128 32.411C46.041 32.5805 45.9075 32.7798 45.8096 33.0109L45.8086 33.0138ZM160.569 6.75544H160.382C159.97 6.75544 159.618 6.90374 159.323 7.19843C159.118 7.40451 158.981 7.63755 158.916 7.89564L156.059 6.94419V24.8668H159.07V20.1538C159.511 20.279 160.01 20.3416 160.57 20.3416C161.401 20.3416 162.11 20.0469 162.698 19.4566C163.287 18.8739 163.581 18.1623 163.581 17.3216V9.7764C163.581 8.9434 163.287 8.23173 162.698 7.64141C162.11 7.05108 161.401 6.7564 160.57 6.7564L160.569 6.75544ZM160.569 19.9641C160.047 19.9641 159.577 19.9053 159.172 19.7907L159.07 19.7618V9.08688C159.07 8.40026 159.316 7.83786 159.393 7.7146C159.431 7.65489 159.491 7.56437 159.589 7.46518C159.812 7.24176 160.071 7.13294 160.381 7.13294C160.424 7.13294 160.466 7.13679 160.506 7.14064C160.509 7.14931 160.511 7.15605 160.512 7.16472C160.549 7.31302 160.568 7.48925 160.568 7.6963L160.569 19.9641ZM14.2622 6.75544C14.2622 6.75544 13.4846 6.66877 13.0162 7.19843C12.8232 7.41607 12.6744 7.63755 12.6082 7.89564L9.75121 6.94419V24.8668H12.7627V20.1538C13.2043 20.279 13.7035 20.3416 14.2632 20.3416C15.0946 20.3416 15.803 20.0469 16.3915 19.4566C16.98 18.8739 17.2738 18.1623 17.2738 17.3216V9.7764C17.2738 8.9434 16.98 8.23173 16.3915 7.64141C15.803 7.05108 15.0946 6.7564 14.2632 6.7564L14.2622 6.75544ZM14.2622 19.9641C13.2101 19.9313 12.7618 19.7609 12.7618 19.7609V9.08592C12.7618 8.3993 13.0075 7.83594 13.0853 7.71363C13.5317 7.01642 14.1586 7.13583 14.1989 7.13968C14.2018 7.14835 14.2613 7.48925 14.2613 7.69534V19.9631L14.2622 19.9641ZM50.0799 6.75544H49.8927C49.4808 6.75544 49.1285 6.90374 48.8347 7.19843C48.6283 7.40451 48.493 7.63755 48.4267 7.89564L45.5707 6.94419V24.8668H48.5813V20.1538C49.0229 20.279 49.5221 20.3416 50.0818 20.3416C50.9131 20.3416 51.6216 20.0469 52.2101 19.4566C52.7986 18.8739 53.0923 18.1623 53.0923 17.3216V9.7764C53.0923 8.9434 52.7986 8.23173 52.2101 7.64141C51.6216 7.05108 50.9131 6.7564 50.0818 6.7564L50.0799 6.75544ZM50.0799 19.9641C49.5586 19.9641 49.0882 19.9053 48.6831 19.7907L48.5803 19.7618V9.08688C48.5803 8.40026 48.8271 7.83786 48.9039 7.7146C48.9413 7.65489 49.0008 7.56437 49.0997 7.46518C49.3224 7.24176 49.5816 7.13294 49.8917 7.13294C49.9359 7.13294 49.9771 7.13679 50.0165 7.14064C50.0194 7.14931 50.0213 7.15605 50.0232 7.16472C50.0607 7.31302 50.0789 7.48925 50.0789 7.6963L50.0799 19.9641ZM122.99 6.75544H122.803C122.391 6.75544 122.039 6.90374 121.745 7.19843C121.538 7.40451 121.403 7.63755 121.337 7.89564L118.481 6.94419V24.8668H121.491V20.1538C121.933 20.279 122.432 20.3416 122.992 20.3416C123.823 20.3416 124.532 20.0469 125.12 19.4566C125.709 18.8739 126.002 18.1623 126.002 17.3216V9.7764C126.002 8.9434 125.709 8.23173 125.12 7.64141C124.532 7.05108 123.823 6.7564 122.992 6.7564L122.99 6.75544ZM122.99 19.9641C122.469 19.9641 121.998 19.9053 121.593 19.7907L121.49 19.7618V9.08688C121.49 8.40026 121.737 7.83786 121.814 7.7146C121.851 7.65489 121.911 7.56437 122.01 7.46518C122.232 7.24176 122.492 7.13294 122.802 7.13294C122.846 7.13294 122.887 7.13679 122.927 7.14064C122.929 7.14931 122.931 7.15605 122.933 7.16472C122.971 7.31302 122.989 7.48925 122.989 7.6963L122.99 19.9641ZM40.6863 6.75544H39.1867C38.3554 6.75544 37.6459 7.05108 37.0575 7.64045C36.469 8.22307 36.1752 8.93473 36.1752 9.7764V17.3216C36.1752 18.1555 36.4699 18.8662 37.0575 19.4575C37.6383 20.0479 38.3477 20.3425 39.1867 20.3425H40.6863C41.5176 20.3425 42.2261 20.0479 42.8155 19.4575C43.404 18.8749 43.6978 18.1632 43.6978 17.3216V9.7764C43.6978 8.94243 43.403 8.23173 42.8155 7.64045C42.2271 7.05012 41.5176 6.75544 40.6863 6.75544ZM40.6863 19.8553C40.6863 19.8938 40.668 19.9304 40.6344 19.9641H39.2386C39.204 19.9304 39.1867 19.8938 39.1867 19.8553V7.24272C39.1867 7.2042 39.204 7.16761 39.2386 7.1339H40.6344C40.668 7.16761 40.6863 7.2042 40.6863 7.24272V19.8553ZM59.4744 14.3016H57.9739V6.7564H54.9634V20.3425H59.4744C60.3058 20.3425 61.0143 20.0479 61.6027 19.4575C62.1912 18.8672 62.485 18.1555 62.485 17.3216C62.485 16.4876 62.1912 15.7769 61.6027 15.1866C61.0143 14.5963 60.3058 14.3016 59.4744 14.3016ZM59.4744 19.9439C59.4744 19.9506 59.4658 19.9573 59.461 19.9641H57.9739V14.6791H59.4533C59.4629 14.6897 59.4735 14.6993 59.4735 14.7109L59.4744 19.9439ZM68.869 14.3016V19.8562C68.869 19.8947 68.8507 19.9313 68.8171 19.965H67.4213C67.3867 19.9313 67.3695 19.8947 67.3695 19.8562V12.7974H71.8805V9.77736C71.8805 8.9434 71.5867 8.23269 70.9983 7.64141C70.4088 7.05108 69.7003 6.7564 68.869 6.7564H67.3685C66.5371 6.7564 65.8287 7.05108 65.2402 7.64141C64.6517 8.22403 64.3579 8.93569 64.3579 9.77736V17.3225C64.3579 18.1642 64.6517 18.8749 65.2402 19.4585C65.8287 20.0488 66.5371 20.3435 67.3685 20.3435H68.869C69.7003 20.3435 70.4088 20.0488 70.9983 19.4585C71.5867 18.8682 71.8805 18.1565 71.8805 17.3225V14.3016H68.869ZM67.3685 7.24272C67.3685 7.2042 67.3867 7.16761 67.4203 7.1339H68.8162C68.8498 7.16761 68.868 7.2042 68.868 7.24272V12.4189H67.3675L67.3685 7.24272ZM151.173 14.3016V19.8562C151.173 19.8947 151.154 19.9313 151.121 19.965H149.725C149.69 19.9313 149.673 19.8947 149.673 19.8562V12.7974H154.184V9.77736C154.184 8.9434 153.89 8.23269 153.302 7.64141C152.712 7.05108 152.004 6.7564 151.173 6.7564H149.672C148.841 6.7564 148.132 7.05108 147.544 7.64141C146.955 8.22403 146.662 8.93569 146.662 9.77736V17.3225C146.662 18.1642 146.955 18.8749 147.544 19.4585C148.132 20.0488 148.841 20.3435 149.672 20.3435H151.173C152.004 20.3435 152.712 20.0488 153.302 19.4585C153.89 18.8682 154.184 18.1565 154.184 17.3225V14.3016H151.173ZM149.672 7.24272C149.672 7.2042 149.69 7.16761 149.724 7.1339H151.12C151.153 7.16761 151.172 7.2042 151.172 7.24272V12.4189H149.671L149.672 7.24272ZM28.5394 6.7564H35.6856V7.13583H31.5499V20.3425H28.5394V6.7564ZM23.5675 6.7564H26.6664V20.3425H23.6558V9.09555L22.2571 20.3425H19.1458V6.7564H22.1563V18.1064L23.5675 6.7564ZM80.3899 7.64141C79.8015 7.05108 79.093 6.7564 78.2616 6.7564H73.7506V20.3425H78.2616C79.093 20.3425 79.8015 20.0469 80.3899 19.4575C80.9784 18.8749 81.2722 18.1632 81.2722 17.3225V15.8174C81.2722 14.9834 80.9775 14.2727 80.3899 13.6814C80.0597 13.3424 79.6843 13.1026 79.2648 12.962V12.8185C79.6834 12.6789 80.0587 12.4382 80.3899 12.0992C80.9784 11.5089 81.2722 10.7982 81.2722 9.96419H81.2607C81.2674 9.89774 81.2722 9.83514 81.2722 9.7764C81.2722 8.94243 80.9775 8.23269 80.3899 7.64141ZM78.2616 19.9439C78.2616 19.9516 78.253 19.9583 78.2482 19.965H76.7611V13.0843C76.7611 13.0843 78.2616 13.0063 78.2616 13.196V19.9439ZM78.2616 12.5759C78.2347 12.7897 76.7611 12.7068 76.7611 12.7068V7.1339H78.2482C78.252 7.14064 78.2616 7.14739 78.2616 7.15413V12.5759ZM113.595 6.7564H112.095C110.786 6.7564 110.04 7.56822 109.966 7.64141C109.451 8.15084 109.162 8.75946 109.098 9.46728C109.089 9.56839 109.084 11.2806 109.084 11.2806H112.095V7.24272C112.095 7.18301 112.146 7.13487 112.147 7.13294H113.544C113.56 7.15027 113.597 7.19842 113.595 7.24272V12.5643C113.161 12.7194 112.661 12.7974 112.095 12.7974C111.264 12.7974 110.555 13.092 109.966 13.6824C109.377 14.2727 109.083 14.9844 109.083 15.8174V17.5103C109.083 18.351 109.377 19.0665 109.966 19.6569C110.546 20.2395 111.257 20.5313 112.095 20.5313C112.095 20.5313 112.776 20.6401 113.341 20.0999C113.546 19.8938 113.679 19.6569 113.737 19.392L116.605 20.3435V9.77736C116.605 8.94436 116.311 8.23269 115.723 7.64237C115.134 7.05204 114.426 6.75736 113.594 6.75736L113.595 6.7564ZM113.595 17.9562C113.621 18.7372 113.38 19.5847 113.079 19.8283C112.836 20.0238 112.595 20.1528 112.283 20.1528C112.238 20.1528 112.196 20.1499 112.154 20.1451C112.152 20.1403 112.152 20.1374 112.151 20.1316C112.114 19.9766 112.095 19.7965 112.095 19.5895V13.7373C112.095 13.5312 112.113 13.354 112.151 13.2066C112.153 13.1932 112.157 13.1845 112.16 13.172C112.688 13.1662 113.169 13.094 113.594 12.9582L113.595 17.9562ZM177.492 6.7564V20.3425H174.481V6.7564H177.492ZM169.96 14.3016H168.459V6.7564H165.449V20.3425H169.96C170.791 20.3425 171.5 20.0479 172.089 19.4575C172.678 18.8672 172.971 18.1555 172.971 17.3216C172.971 16.4876 172.677 15.7769 172.089 15.1866C171.501 14.5963 170.791 14.3016 169.96 14.3016ZM169.96 19.9439C169.96 19.9506 169.951 19.9573 169.946 19.9641H168.459V14.6791H169.939C169.949 14.6897 169.959 14.6993 169.959 14.7109L169.96 19.9439ZM127.872 6.7564H135.394V7.1339H133.133V20.3425H130.122V7.1339H127.872V6.7564ZM141.777 6.7564H144.788V20.3425H141.777V12.9861H140.277V20.3425H137.266V6.7564H140.277V12.5759H141.777V6.7564ZM89.8459 10.8136H92.2325V16.2844H89.9458V11.714L88.7938 16.2844H86.341V10.8136H88.6277V15.6421L89.8459 10.8136ZM9.71665 2.49797C9.48529 2.20811 9.12433 2.21774 9.06769 2.22352H0.507368V2.60005H1.69489V20.3348H5.60017V2.60391L9.08113 2.60005C9.08977 2.59813 9.30673 2.58465 9.42481 2.73295C9.54481 2.88414 9.52177 3.12875 9.37489 3.25779C9.29905 3.3252 9.19249 3.35601 9.08017 3.34446C8.97937 3.33386 8.88721 3.28861 8.84113 3.22505C8.80849 3.18075 8.79217 3.12104 8.79313 3.04689L8.41873 3.04207C8.41681 3.19904 8.45905 3.34157 8.54257 3.45328C8.65297 3.60158 8.83537 3.69885 9.04177 3.721C9.06961 3.72388 9.09841 3.72581 9.12625 3.72581C9.31057 3.72581 9.48817 3.66129 9.62257 3.54284C9.91921 3.28283 9.96241 2.80325 9.71857 2.49701L9.71665 2.49797ZM3.17329 19.6694H2.59633V2.90918H3.17329V19.6694ZM4.66897 19.6694H4.09201V2.90918H4.66897V19.6694ZM97.4395 2.23892H106.808V20.3502H102.903V2.61546H101.345V20.3502H97.4405L97.4395 2.23892Z" fill="#0C0C0C"/>
</g>
<defs>
<clipPath id="clip0_55_884">
<rect width="179" height="38" fill="white"/>
</clipPath>
</defs>
</svg>
