<svg width="280" height="70" viewBox="0 0 280 70" fill="none" xmlns="http://www.w3.org/2000/svg">
<path d="M44.9929 59.8052C47.9572 59.8052 50.0332 60.8931 50.0332 64.4466C50.0332 68 47.9572 69.1022 44.9929 69.1022H42.7363V59.8052H44.9929ZM44.9644 60.5891H43.5914V68.323H44.9644C47.0784 68.323 49.1211 67.886 49.1211 64.4513C49.1211 61.0167 47.0831 60.5939 44.9644 60.5939V60.5891Z" fill="white"/>
<path d="M57.4204 59.8052H63.3824V60.5986H58.2803V63.8812H63.0784V64.6889H58.2803V68.3041H63.3824V69.0974H57.4204V59.8005V59.8052Z" fill="white"/>
<path d="M72.7363 60.5986H69.6057V59.8052H76.7221V60.5986H73.5914V69.1022H72.7316V60.5986H72.7363Z" fill="white"/>
<path d="M85.3587 59.8052H86.3325L89.8717 69.1022H88.9359L88.0523 66.7696H83.6294L82.7554 69.1022H81.8337L85.3587 59.8052ZM83.9193 65.9763H87.7387L85.8147 60.8741L83.9193 65.9763Z" fill="white"/>
<path d="M97.6057 69.1022H96.7458V59.8052H97.6057V69.1022Z" fill="white"/>
<path d="M106.432 68.3088H111.359V69.1022H105.577V59.8052H106.437V68.3088H106.432Z" fill="white"/>
<path d="M119.093 69.1022H118.233V59.8052H119.093V69.1022Z" fill="white"/>
<path d="M133.017 69.1022L127.924 60.7269V69.1022H127.064V59.8052H128.309L133.401 68.19V59.8052H134.261V69.1022H133.017Z" fill="white"/>
<path d="M149.734 62.6033H148.836C148.451 61.0499 147.145 60.4608 145.862 60.4608C144.014 60.4608 142.565 61.886 142.565 64.4466C142.565 67.0071 143.886 68.4466 145.796 68.4466C147.169 68.4466 148.898 67.9098 148.898 65.6627V65.3159H146.294V64.5226H149.72V69.1022H148.964L148.95 67.7957C148.385 68.6793 147.387 69.2684 145.781 69.2684C143.112 69.2684 141.653 67.2542 141.653 64.4466C141.653 61.639 143.23 59.639 145.886 59.639C147.862 59.639 149.321 60.6651 149.734 62.6033Z" fill="white"/>
<path d="M169.074 59.639C170.907 59.639 172.19 60.5368 172.537 62.1283H171.639C171.321 61.0499 170.409 60.4608 168.983 60.4608C168.048 60.4608 166.727 60.8314 166.727 62.0523C166.727 62.9881 167.482 63.4489 168.523 63.696L169.625 63.9383C170.96 64.247 172.755 64.7696 172.755 66.5558C172.755 68.3421 171.126 69.2732 169.321 69.2732C166.998 69.2732 165.72 67.9763 165.511 66.3088H166.409C166.727 67.7957 167.753 68.4513 169.283 68.4513C170.295 68.4513 171.862 68.0808 171.862 66.6936C171.862 65.563 170.76 65.0262 169.449 64.7459L168.28 64.4893C167.064 64.2185 165.843 63.62 165.843 62.0903C165.843 60.3848 167.572 59.639 169.074 59.639Z" fill="white"/>
<path d="M181.824 60.5986H178.694V59.8052H185.81V60.5986H182.679V69.1022H181.82V60.5986H181.824Z" fill="white"/>
<path d="M193.397 59.8052V65.4964C193.397 67.4964 194.128 68.4466 196.104 68.4466C198.081 68.4466 198.836 67.3587 198.836 65.3444V59.8052H199.696V65.2399C199.696 67.9478 198.736 69.2684 196.104 69.2684C193.473 69.2684 192.542 68.2281 192.542 65.3444V59.8052H193.401H193.397Z" fill="white"/>
<path d="M209.786 59.8052C212.751 59.8052 214.827 60.8931 214.827 64.4466C214.827 68 212.751 69.1022 209.786 69.1022H207.53V59.8052H209.786ZM209.763 60.5891H208.39V68.323H209.763C211.877 68.323 213.919 67.886 213.919 64.4513C213.919 61.0167 211.881 60.5939 209.763 60.5939V60.5891Z" fill="white"/>
<path d="M223.074 69.1022H222.214V59.8052H223.074V69.1022Z" fill="white"/>
<path d="M234.708 69.2684C232.081 69.2684 230.451 67.2827 230.451 64.4466C230.451 61.6105 232.081 59.639 234.708 59.639C237.335 59.639 238.964 61.6152 238.964 64.4466C238.964 67.2779 237.335 69.2684 234.708 69.2684ZM234.708 68.4466C236.608 68.4466 238.052 66.9976 238.052 64.4466C238.052 61.8955 236.603 60.4608 234.708 60.4608C232.812 60.4608 231.363 61.8955 231.363 64.4466C231.363 66.9976 232.812 68.4466 234.708 68.4466Z" fill="white"/>
<path d="M13.677 4.42281H0V0.945374H31.1116V4.42281H17.4347V41.5867H13.677V4.42281Z" fill="white"/>
<path d="M67.3776 0.945374V41.5867H63.6199V22.304H39.6864V41.5867H35.9287V0.945374H39.6864V18.7696H63.6199V0.945374H67.3776Z" fill="white"/>
<path d="M77.0215 0.945374H103.088V4.42281H80.7792V18.7744H101.744V22.304H80.7792V38.114H103.088V41.5915H77.0215V0.950129V0.945374Z" fill="white"/>
<path d="M131.563 0.945374H144.399L159.14 41.5867H146.413L144.337 34.8029H131.387L129.311 41.5867H116.812L131.553 0.945374H131.563ZM134.142 26.0618H141.653L137.952 13.8432L134.142 26.0618Z" fill="white"/>
<path d="M172.427 0.945374V24.7696C172.427 29.9287 173.995 32.5036 179.04 32.5036C184.085 32.5036 185.653 29.5344 185.653 24.7696V0.945374H197.368V23.5915C197.368 36.2613 192.437 42.3135 179.15 42.3135C165.862 42.3135 160.708 37.4917 160.708 23.9858V0.945374H172.423H172.427Z" fill="white"/>
<path d="M212.788 10.9834H200.679V0.950134H236.665V10.9834H224.499V41.5915H212.784V10.9834H212.788Z" fill="white"/>
<path d="M258.698 42.3183C246.252 42.3183 237.396 34.5843 237.396 21.1877C237.396 7.79098 246.252 0 258.698 0C271.145 0 280 7.79098 280 21.1877C280 34.5843 271.145 42.3183 258.698 42.3183ZM258.698 32.5083C263.406 32.5083 267.834 29.2019 267.834 21.1829C267.834 13.1639 263.406 9.80522 258.698 9.80522C253.99 9.80522 249.563 13.1686 249.563 21.1829C249.563 29.1972 253.99 32.5083 258.698 32.5083Z" fill="white"/>
</svg>
