<svg width="34" height="34" viewBox="0 0 34 34" fill="none" xmlns="http://www.w3.org/2000/svg">
  <path d="M16.6667 0C13.3703 0 10.148 0.977483 7.40717 2.80884C4.66635 4.6402 2.53014 7.24317 1.26868 10.2886C0.0072214 13.334 -0.322834 16.6852 0.320253 19.9182C0.96334 23.1512 2.55069 26.1209 4.88156 28.4518C7.21244 30.7827 10.1822 32.37 13.4152 33.0131C16.6482 33.6562 19.9993 33.3261 23.0447 32.0647C26.0902 30.8032 28.6931 28.667 30.5245 25.9262C32.3559 23.1854 33.3333 19.963 33.3333 16.6667C33.3333 14.478 32.9022 12.3107 32.0647 10.2886C31.2271 8.26652 29.9994 6.4292 28.4518 4.88155C26.9041 3.33391 25.0668 2.10625 23.0447 1.26867C21.0226 0.431096 18.8554 0 16.6667 0ZM13.3333 24.1667V9.16667L23.3333 16.6667L13.3333 24.1667Z" fill="#C86834" />
</svg>