<svg width="31" height="27" viewBox="0 0 31 27" fill="none" xmlns="http://www.w3.org/2000/svg">
  <path fill-rule="evenodd" clip-rule="evenodd" d="M6.67616 16.3534C6.74206 16.3736 6.80927 16.3893 6.87731 16.4005C7.30844 17.4128 7.73716 18.4262 8.16345 19.4406C8.92995 21.2659 9.70254 23.1459 9.87169 23.6865C10.0835 24.3517 10.306 24.8042 10.5498 25.114C10.6763 25.2719 10.8211 25.4116 10.9917 25.5179C11.0813 25.5721 11.1763 25.6168 11.2752 25.6516C11.7628 25.8338 12.2078 25.7579 12.4866 25.6652C12.6504 25.6098 12.8061 25.5332 12.9499 25.4374L12.9575 25.4344L17.2639 22.7587L22.2393 26.5581C22.3125 26.6138 22.3917 26.6609 22.4771 26.6994C23.0744 26.9575 23.6535 27.0486 24.199 26.9757C24.7415 26.8998 25.1728 26.6735 25.4943 26.4169C25.8632 26.12 26.1575 25.7415 26.3538 25.3114L26.3675 25.278L26.372 25.2658L26.3751 25.2598V25.2567L26.3766 25.2552C26.4016 25.1894 26.422 25.1219 26.4376 25.0532L30.9787 2.23686C30.9912 2.16357 30.9983 2.08947 31 2.01515C31 1.34698 30.747 0.710701 30.1543 0.326505C29.6453 -0.00302248 29.0799 -0.0182083 28.7218 0.00912582C28.3378 0.039497 27.9812 0.133648 27.742 0.209576C27.6083 0.252594 27.4762 0.300204 27.3458 0.352321L27.329 0.359913L1.85924 10.3156L1.85619 10.3171C1.76983 10.3482 1.68491 10.3832 1.60171 10.4219C1.39966 10.5122 1.20591 10.62 1.02264 10.7438C0.676727 10.9792 -0.120251 11.6261 0.0153726 12.6952C0.122043 13.5456 0.707204 14.0695 1.06531 14.3216C1.26037 14.4598 1.44628 14.5585 1.58342 14.6238C1.64438 14.6541 1.77543 14.7058 1.83181 14.7301L1.84705 14.7346L6.67616 16.3534ZM28.2205 2.45553H28.2174L28.1778 2.47223L2.67755 12.4416L2.63793 12.4568L2.6227 12.4613C2.57601 12.4793 2.53024 12.4996 2.48555 12.5221C2.52816 12.5459 2.57189 12.5677 2.6166 12.5874L7.40456 14.194C7.4891 14.2252 7.5707 14.2638 7.64838 14.3094L23.4615 5.08416L23.4767 5.07656C23.5385 5.03994 23.6015 5.00549 23.6657 4.9733C23.7754 4.91712 23.9506 4.83511 24.1487 4.77437C24.2859 4.73185 24.6927 4.61189 25.1316 4.75311C25.3648 4.82559 25.5726 4.96228 25.7311 5.14741C25.8897 5.33254 25.9925 5.55856 26.0276 5.7994C26.0844 6.0101 26.086 6.23179 26.0322 6.44327C25.9255 6.86087 25.633 7.18585 25.3663 7.43489C25.1377 7.64749 22.1723 10.4963 19.248 13.3087L15.2662 17.1355L14.5576 17.8188L23.5057 24.6554C23.6265 24.7057 23.7576 24.7265 23.8881 24.7161C23.9539 24.7071 24.0157 24.6798 24.0664 24.6372C24.1281 24.5851 24.1811 24.5236 24.2234 24.4549L24.2264 24.4534L28.6304 2.32341C28.4919 2.3574 28.3559 2.40104 28.2235 2.45401L28.2205 2.45553ZM15.3271 21.2766L13.5411 19.9129L13.1084 22.6539L15.3271 21.2766ZM11.903 17.2068L13.6783 15.4984L17.6601 11.6686L19.1429 10.2442L9.20729 16.0406L9.26063 16.1651C9.88725 17.6403 10.507 19.1184 11.1197 20.5993L11.551 17.8659C11.5904 17.6125 11.7144 17.3813 11.903 17.2068Z" fill="white" />
</svg>