<svg width="35" height="31" viewBox="0 0 35 31" fill="none" xmlns="http://www.w3.org/2000/svg">
  <path d="M33.116 7.12637C33.3408 6.36953 33.116 5.8125 32.0344 5.8125H28.4554C27.5439 5.8125 27.1247 6.29082 26.8998 6.82363C26.8998 6.82363 25.0769 11.2496 22.5005 14.1195C21.6681 14.949 21.2853 15.2154 20.8295 15.2154C20.6047 15.2154 20.2584 14.949 20.2584 14.1922V7.12637C20.2584 6.21816 20.0031 5.8125 19.2497 5.8125H13.6229C13.0518 5.8125 12.7115 6.23633 12.7115 6.62988C12.7115 7.48965 13.9997 7.68945 14.1334 10.1113V15.3668C14.1334 16.5172 13.9268 16.7291 13.471 16.7291C12.2557 16.7291 9.30263 12.285 7.55263 7.19902C7.2002 6.21211 6.85384 5.8125 5.93631 5.8125H2.35731C1.33648 5.8125 1.12988 6.29082 1.12988 6.82363C1.12988 7.76816 2.34516 12.4605 6.787 18.6605C9.7462 22.8928 13.9146 25.1875 17.7063 25.1875C19.9849 25.1875 20.2644 24.6789 20.2644 23.801C20.2644 19.7564 20.0578 19.375 21.2002 19.375C21.7288 19.375 22.6403 19.6414 24.767 21.6818C27.1976 24.1037 27.5986 25.1875 28.9597 25.1875H32.5387C33.5596 25.1875 34.0761 24.6789 33.7783 23.6738C33.0978 21.5607 28.4979 17.2135 28.2913 16.9229C27.7627 16.2447 27.9146 15.942 28.2913 15.3365C28.2974 15.3305 32.6663 9.20312 33.116 7.12637Z" fill="white" />
</svg>