<svg width="351" height="308" viewBox="0 0 351 308" fill="none" xmlns="http://www.w3.org/2000/svg">
<path d="M32.3625 219.843C14.5189 219.843 0 205.317 0 187.466V185.18H64.7249V187.466C64.7249 205.317 50.2061 219.843 32.3625 219.843ZM26.4066 172.27H3.52807L32.3744 83.0004L61.2088 172.27H38.3302L32.3744 153.821L26.4185 172.27H26.4066ZM351 185.18V187.466C351 205.317 336.481 219.843 318.637 219.843C300.794 219.843 286.275 205.317 286.275 187.466V185.18H351ZM312.682 172.27H289.803L318.637 83.0004L347.484 172.27H324.605L318.649 153.821L312.694 172.27H312.682ZM30.0781 286.212H320.934V308H30.0781V286.212ZM89.5649 57.1203H30.2098V35.3323H111.331V239.118H89.5529V57.1203H89.5649ZM191.101 46.1007C201.649 41.2549 212.891 38.0005 224.528 36.4331L227.123 36.0861V58.0297L225.198 58.3408C218.788 59.3578 212.7 60.9252 207.103 63.0071L205.704 63.5216L204.663 62.4447C200.394 58.0536 195.694 53.8659 190.659 49.9773L187.669 47.6681L191.101 46.0887V46.1007ZM113.364 21.788H30.2217V0H113.364C135.992 0 158.344 5.69529 178.089 16.4996C197.846 5.70725 220.199 0 242.814 0H320.934V21.788H242.814C220.103 21.788 198.157 28.5004 179.357 41.1951L178.077 42.0566L176.798 41.1951C157.997 28.5004 136.063 21.788 113.352 21.788H113.364ZM320.934 57.1203H261.507V239.118H239.729V35.3323H320.922V57.1203H320.934ZM240.291 250.162H320.934V271.95H240.291C217.161 271.95 194.809 265.261 175.542 252.591C156.263 265.261 133.923 271.95 110.841 271.95H30.0901V250.162H110.841C127.201 250.162 143.287 245.986 157.555 238.053C134.951 215.858 122.047 185.264 122.047 153.641C122.047 122.018 134.951 91.4356 157.567 69.2408C147.676 63.725 137.044 60.0517 125.91 58.2929L123.972 57.9938V36.0622L126.568 36.4091C185.014 44.2222 229.096 94.6183 229.096 153.641C229.096 180.49 220.27 205.832 203.575 226.926L202.379 228.434L200.693 227.524C195.442 224.701 190.527 221.338 186.066 217.546L184.356 216.098L185.767 214.363C199.664 197.229 207.318 175.668 207.318 153.641C207.318 126.421 195.777 100.493 175.578 82.1748C155.366 100.493 143.813 126.433 143.813 153.641C143.813 206.861 187.095 250.162 240.291 250.162Z" fill="white"/>
</svg>
